<svg xmlns="http://www.w3.org/2000/svg" version="1.0" width="572.000000pt" height="436.000000pt" viewBox="0 0 572.000000 436.000000" preserveAspectRatio="xMidYMid meet">

<g transform="translate(0.000000,436.000000) scale(0.100000,-0.100000)" fill="#f9f7f0" stroke="none">
<path d="M2686 4085 c-451 -57 -811 -182 -1156 -401 -330 -210 -574 -471 -730 -782 -97 -194 -152 -381 -154 -522 -2 -139 48 -217 183 -289 81 -42 250 -96 371 -117 147 -26 499 -26 655 -1 292 48 524 126 824 276 482 242 943 378 1396 412 409 31 820 -45 1137 -208 120 -63 147 -64 168 -12 32 76 1 203 -100 414 -102 211 -223 378 -396 545 -371 357 -857 586 -1437 676 -143 22 -613 28 -761 9z" fill="#f9f7f0"/>
<path d="M4085 2120 c-136 -12 -285 -37 -438 -76 -252 -63 -418 -127 -757 -289 -516 -247 -898 -345 -1350 -345 -221 0 -329 12 -455 51 -55 17 -127 34 -160 36 -51 4 -64 2 -87 -17 -59 -46 -30 -112 130 -298 458 -533 946 -793 1697 -904 60 -9 189 -13 385 -12 276 0 306 2 455 28 597 103 1067 340 1435 723 164 170 305 376 350 507 23 70 26 162 6 210 -46 110 -242 231 -512 316 -192 59 -479 88 -699 70z" fill="#f9f7f0"/>
</g>
</svg>